<mxfile host="app.diagrams.net" agent="Mozilla/5.0 (Windows NT 10.0; Win64; x64) AppleWebKit/537.36 (KHTML, like Gecko) Chrome/130.0.0.0 Safari/537.36 Edg/130.0.0.0" version="24.8.6" pages="4">
  <diagram id="C5RBs43oDa-KdzZeNtuy" name="Page-1">
    <mxGraphModel dx="2318" dy="1303" grid="1" gridSize="10" guides="1" tooltips="1" connect="1" arrows="1" fold="1" page="1" pageScale="1" pageWidth="827" pageHeight="1169" math="0" shadow="0">
      <root>
        <mxCell id="WIyWlLk6GJQsqaUBKTNV-0" />
        <mxCell id="WIyWlLk6GJQsqaUBKTNV-1" parent="WIyWlLk6GJQsqaUBKTNV-0" />
        <mxCell id="WIyWlLk6GJQsqaUBKTNV-2" value="" style="rounded=0;html=1;jettySize=auto;orthogonalLoop=1;fontSize=11;endArrow=block;endFill=0;endSize=8;strokeWidth=1;shadow=0;labelBackgroundColor=none;edgeStyle=orthogonalEdgeStyle;" parent="WIyWlLk6GJQsqaUBKTNV-1" source="WIyWlLk6GJQsqaUBKTNV-3" edge="1">
          <mxGeometry relative="1" as="geometry">
            <mxPoint x="220" y="170" as="targetPoint" />
          </mxGeometry>
        </mxCell>
        <mxCell id="WIyWlLk6GJQsqaUBKTNV-3" value="Main()" style="rounded=1;whiteSpace=wrap;html=1;fontSize=12;glass=0;strokeWidth=1;shadow=0;" parent="WIyWlLk6GJQsqaUBKTNV-1" vertex="1">
          <mxGeometry x="160" y="80" width="120" height="40" as="geometry" />
        </mxCell>
        <mxCell id="WIyWlLk6GJQsqaUBKTNV-11" value="Read and store the user input text file name&amp;nbsp;" style="rounded=0;whiteSpace=wrap;html=1;fontSize=12;glass=0;strokeWidth=1;shadow=0;" parent="WIyWlLk6GJQsqaUBKTNV-1" vertex="1">
          <mxGeometry x="147.5" y="390" width="145" height="40" as="geometry" />
        </mxCell>
        <mxCell id="sNgbYakATSlWxgivNhm_-2" style="edgeStyle=orthogonalEdgeStyle;rounded=0;orthogonalLoop=1;jettySize=auto;html=1;exitX=0.5;exitY=1;exitDx=0;exitDy=0;" parent="WIyWlLk6GJQsqaUBKTNV-1" source="sNgbYakATSlWxgivNhm_-0" edge="1">
          <mxGeometry relative="1" as="geometry">
            <mxPoint x="220.0689655172414" y="280" as="targetPoint" />
          </mxGeometry>
        </mxCell>
        <mxCell id="sNgbYakATSlWxgivNhm_-0" value="LoadFontData()" style="shape=process;whiteSpace=wrap;html=1;backgroundOutline=1;" parent="WIyWlLk6GJQsqaUBKTNV-1" vertex="1">
          <mxGeometry x="160" y="170" width="120" height="60" as="geometry" />
        </mxCell>
        <mxCell id="sNgbYakATSlWxgivNhm_-3" value="Ask user to input the text file name" style="shape=parallelogram;perimeter=parallelogramPerimeter;whiteSpace=wrap;html=1;fixedSize=1;" parent="WIyWlLk6GJQsqaUBKTNV-1" vertex="1">
          <mxGeometry x="130" y="280" width="180" height="70" as="geometry" />
        </mxCell>
        <mxCell id="sNgbYakATSlWxgivNhm_-4" value="" style="endArrow=classic;html=1;rounded=0;exitX=0.5;exitY=1;exitDx=0;exitDy=0;entryX=0.5;entryY=0;entryDx=0;entryDy=0;" parent="WIyWlLk6GJQsqaUBKTNV-1" source="sNgbYakATSlWxgivNhm_-3" target="WIyWlLk6GJQsqaUBKTNV-11" edge="1">
          <mxGeometry width="50" height="50" relative="1" as="geometry">
            <mxPoint x="260" y="370" as="sourcePoint" />
            <mxPoint x="310" y="320" as="targetPoint" />
          </mxGeometry>
        </mxCell>
        <mxCell id="sNgbYakATSlWxgivNhm_-10" style="edgeStyle=orthogonalEdgeStyle;rounded=0;orthogonalLoop=1;jettySize=auto;html=1;exitX=0.5;exitY=1;exitDx=0;exitDy=0;entryX=0.5;entryY=0;entryDx=0;entryDy=0;" parent="WIyWlLk6GJQsqaUBKTNV-1" source="sNgbYakATSlWxgivNhm_-6" target="sNgbYakATSlWxgivNhm_-9" edge="1">
          <mxGeometry relative="1" as="geometry" />
        </mxCell>
        <mxCell id="sNgbYakATSlWxgivNhm_-6" value="Ask user to input the desired text&amp;nbsp; height between 4mm and 10mm" style="shape=parallelogram;perimeter=parallelogramPerimeter;whiteSpace=wrap;html=1;fixedSize=1;" parent="WIyWlLk6GJQsqaUBKTNV-1" vertex="1">
          <mxGeometry x="112.5" y="570" width="215" height="90" as="geometry" />
        </mxCell>
        <mxCell id="sNgbYakATSlWxgivNhm_-13" style="edgeStyle=orthogonalEdgeStyle;rounded=0;orthogonalLoop=1;jettySize=auto;html=1;exitX=0.5;exitY=1;exitDx=0;exitDy=0;entryX=0.5;entryY=0;entryDx=0;entryDy=0;" parent="WIyWlLk6GJQsqaUBKTNV-1" source="sNgbYakATSlWxgivNhm_-9" target="sNgbYakATSlWxgivNhm_-11" edge="1">
          <mxGeometry relative="1" as="geometry" />
        </mxCell>
        <mxCell id="sNgbYakATSlWxgivNhm_-9" value="Read and store the user height input" style="rounded=0;whiteSpace=wrap;html=1;" parent="WIyWlLk6GJQsqaUBKTNV-1" vertex="1">
          <mxGeometry x="142.5" y="690" width="150" height="60" as="geometry" />
        </mxCell>
        <mxCell id="sNgbYakATSlWxgivNhm_-14" style="edgeStyle=orthogonalEdgeStyle;rounded=0;orthogonalLoop=1;jettySize=auto;html=1;exitX=0.5;exitY=1;exitDx=0;exitDy=0;entryX=0.5;entryY=0;entryDx=0;entryDy=0;" parent="WIyWlLk6GJQsqaUBKTNV-1" source="sNgbYakATSlWxgivNhm_-11" target="sNgbYakATSlWxgivNhm_-12" edge="1">
          <mxGeometry relative="1" as="geometry" />
        </mxCell>
        <mxCell id="sNgbYakATSlWxgivNhm_-11" value="Calculate the scale factor needed to adjust the height to real life:&lt;div&gt;ScaleFactor=(user height input/18)&lt;/div&gt;" style="rounded=0;whiteSpace=wrap;html=1;" parent="WIyWlLk6GJQsqaUBKTNV-1" vertex="1">
          <mxGeometry x="120" y="780" width="195" height="60" as="geometry" />
        </mxCell>
        <mxCell id="sNgbYakATSlWxgivNhm_-12" value="ScaleFont()" style="shape=process;whiteSpace=wrap;html=1;backgroundOutline=1;" parent="WIyWlLk6GJQsqaUBKTNV-1" vertex="1">
          <mxGeometry x="133.75" y="870" width="167.5" height="60" as="geometry" />
        </mxCell>
        <mxCell id="sNgbYakATSlWxgivNhm_-15" value="SendtoArduino()" style="shape=process;whiteSpace=wrap;html=1;backgroundOutline=1;" parent="WIyWlLk6GJQsqaUBKTNV-1" vertex="1">
          <mxGeometry x="160" y="1030" width="120" height="60" as="geometry" />
        </mxCell>
        <mxCell id="lnb4Rd1YpTcgZtunQ4nF-0" value="GenerateGCode()" style="shape=process;whiteSpace=wrap;html=1;backgroundOutline=1;" parent="WIyWlLk6GJQsqaUBKTNV-1" vertex="1">
          <mxGeometry x="136.25" y="950" width="167.5" height="60" as="geometry" />
        </mxCell>
        <mxCell id="JYrKUDy01H7wKMMAi8Ch-0" value="Process Text()" style="shape=process;whiteSpace=wrap;html=1;backgroundOutline=1;" parent="WIyWlLk6GJQsqaUBKTNV-1" vertex="1">
          <mxGeometry x="160" y="460" width="120" height="60" as="geometry" />
        </mxCell>
        <mxCell id="scWSFlbmtgKyWuSqwEYI-0" value="" style="endArrow=classic;html=1;rounded=0;exitX=0.5;exitY=1;exitDx=0;exitDy=0;entryX=0.5;entryY=0;entryDx=0;entryDy=0;" parent="WIyWlLk6GJQsqaUBKTNV-1" source="WIyWlLk6GJQsqaUBKTNV-11" target="JYrKUDy01H7wKMMAi8Ch-0" edge="1">
          <mxGeometry width="50" height="50" relative="1" as="geometry">
            <mxPoint x="300" y="480" as="sourcePoint" />
            <mxPoint x="350" y="430" as="targetPoint" />
          </mxGeometry>
        </mxCell>
        <mxCell id="scWSFlbmtgKyWuSqwEYI-2" value="End" style="rounded=0;whiteSpace=wrap;html=1;" parent="WIyWlLk6GJQsqaUBKTNV-1" vertex="1">
          <mxGeometry x="182.5" y="1120" width="70" height="30" as="geometry" />
        </mxCell>
        <mxCell id="scWSFlbmtgKyWuSqwEYI-4" value="" style="endArrow=classic;html=1;rounded=0;exitX=0.5;exitY=1;exitDx=0;exitDy=0;entryX=0.544;entryY=-0.06;entryDx=0;entryDy=0;entryPerimeter=0;" parent="WIyWlLk6GJQsqaUBKTNV-1" source="sNgbYakATSlWxgivNhm_-15" target="scWSFlbmtgKyWuSqwEYI-2" edge="1">
          <mxGeometry width="50" height="50" relative="1" as="geometry">
            <mxPoint x="280" y="1100" as="sourcePoint" />
            <mxPoint x="330" y="1050" as="targetPoint" />
          </mxGeometry>
        </mxCell>
        <mxCell id="scWSFlbmtgKyWuSqwEYI-5" value="" style="endArrow=classic;html=1;rounded=0;exitX=0.5;exitY=1;exitDx=0;exitDy=0;entryX=0.5;entryY=0;entryDx=0;entryDy=0;" parent="WIyWlLk6GJQsqaUBKTNV-1" source="lnb4Rd1YpTcgZtunQ4nF-0" target="sNgbYakATSlWxgivNhm_-15" edge="1">
          <mxGeometry width="50" height="50" relative="1" as="geometry">
            <mxPoint x="280" y="1100" as="sourcePoint" />
            <mxPoint x="330" y="1050" as="targetPoint" />
          </mxGeometry>
        </mxCell>
        <mxCell id="scWSFlbmtgKyWuSqwEYI-6" value="" style="endArrow=classic;html=1;rounded=0;exitX=0.5;exitY=1;exitDx=0;exitDy=0;entryX=0.48;entryY=-0.036;entryDx=0;entryDy=0;entryPerimeter=0;" parent="WIyWlLk6GJQsqaUBKTNV-1" source="sNgbYakATSlWxgivNhm_-12" target="lnb4Rd1YpTcgZtunQ4nF-0" edge="1">
          <mxGeometry width="50" height="50" relative="1" as="geometry">
            <mxPoint x="280" y="900" as="sourcePoint" />
            <mxPoint x="330" y="850" as="targetPoint" />
          </mxGeometry>
        </mxCell>
        <mxCell id="scWSFlbmtgKyWuSqwEYI-7" value="" style="endArrow=classic;html=1;rounded=0;entryX=0.519;entryY=0.017;entryDx=0;entryDy=0;entryPerimeter=0;exitX=0.541;exitY=1.007;exitDx=0;exitDy=0;exitPerimeter=0;" parent="WIyWlLk6GJQsqaUBKTNV-1" source="JYrKUDy01H7wKMMAi8Ch-0" target="sNgbYakATSlWxgivNhm_-6" edge="1">
          <mxGeometry width="50" height="50" relative="1" as="geometry">
            <mxPoint x="292.5" y="520" as="sourcePoint" />
            <mxPoint x="342.5" y="470" as="targetPoint" />
          </mxGeometry>
        </mxCell>
      </root>
    </mxGraphModel>
  </diagram>
  <diagram id="kF3ROhMH0Hg-4KqkkMKR" name="Page-2">
    <mxGraphModel dx="1685" dy="947" grid="1" gridSize="10" guides="1" tooltips="1" connect="1" arrows="1" fold="1" page="1" pageScale="1" pageWidth="827" pageHeight="1169" math="0" shadow="0">
      <root>
        <mxCell id="0" />
        <mxCell id="1" parent="0" />
        <mxCell id="3Hz11mZcJjZmSHFyL8-g-18" style="edgeStyle=orthogonalEdgeStyle;rounded=0;orthogonalLoop=1;jettySize=auto;html=1;exitX=0.5;exitY=1;exitDx=0;exitDy=0;entryX=0.5;entryY=0;entryDx=0;entryDy=0;" parent="1" source="zgjBJkG_xgu90ymXgIzC-1" target="zgjBJkG_xgu90ymXgIzC-2" edge="1">
          <mxGeometry relative="1" as="geometry" />
        </mxCell>
        <mxCell id="zgjBJkG_xgu90ymXgIzC-1" value="LoadFontData()" style="rounded=1;whiteSpace=wrap;html=1;" parent="1" vertex="1">
          <mxGeometry x="145" y="40" width="120" height="60" as="geometry" />
        </mxCell>
        <mxCell id="3Hz11mZcJjZmSHFyL8-g-10" style="edgeStyle=orthogonalEdgeStyle;rounded=0;orthogonalLoop=1;jettySize=auto;html=1;exitX=0.5;exitY=1;exitDx=0;exitDy=0;entryX=0.5;entryY=0;entryDx=0;entryDy=0;" parent="1" source="zgjBJkG_xgu90ymXgIzC-2" target="zgjBJkG_xgu90ymXgIzC-4" edge="1">
          <mxGeometry relative="1" as="geometry" />
        </mxCell>
        <UserObject label="Open and read the font data, &#39;SingleStrokeFont.txt" link="Load font data from the &quot;SingleStrokeFont.txt&quot; file" id="zgjBJkG_xgu90ymXgIzC-2">
          <mxCell style="rounded=0;whiteSpace=wrap;html=1;" parent="1" vertex="1">
            <mxGeometry x="145" y="130" width="120" height="50" as="geometry" />
          </mxCell>
        </UserObject>
        <mxCell id="zgjBJkG_xgu90ymXgIzC-5" style="edgeStyle=orthogonalEdgeStyle;rounded=0;orthogonalLoop=1;jettySize=auto;html=1;exitX=1;exitY=0.5;exitDx=0;exitDy=0;" parent="1" source="zgjBJkG_xgu90ymXgIzC-4" edge="1">
          <mxGeometry relative="1" as="geometry">
            <mxPoint x="355" y="260.33333333333337" as="targetPoint" />
          </mxGeometry>
        </mxCell>
        <mxCell id="3Hz11mZcJjZmSHFyL8-g-4" style="edgeStyle=orthogonalEdgeStyle;rounded=0;orthogonalLoop=1;jettySize=auto;html=1;exitX=0.5;exitY=1;exitDx=0;exitDy=0;entryX=0.5;entryY=0;entryDx=0;entryDy=0;" parent="1" source="zgjBJkG_xgu90ymXgIzC-4" target="Wn6Uqj_4H-TygD0mhABq-3" edge="1">
          <mxGeometry relative="1" as="geometry" />
        </mxCell>
        <mxCell id="zgjBJkG_xgu90ymXgIzC-4" value="Check if the file is opened successfully" style="rhombus;whiteSpace=wrap;html=1;" parent="1" vertex="1">
          <mxGeometry x="105" y="210" width="200" height="100" as="geometry" />
        </mxCell>
        <mxCell id="3Hz11mZcJjZmSHFyL8-g-7" style="edgeStyle=orthogonalEdgeStyle;rounded=0;orthogonalLoop=1;jettySize=auto;html=1;exitX=0.5;exitY=1;exitDx=0;exitDy=0;entryX=0.5;entryY=0;entryDx=0;entryDy=0;" parent="1" source="zgjBJkG_xgu90ymXgIzC-6" target="Wn6Uqj_4H-TygD0mhABq-2" edge="1">
          <mxGeometry relative="1" as="geometry" />
        </mxCell>
        <mxCell id="zgjBJkG_xgu90ymXgIzC-6" value="Output to the screen: &#39;Error: file cannot be opened.&#39;" style="shape=parallelogram;perimeter=parallelogramPerimeter;whiteSpace=wrap;html=1;fixedSize=1;" parent="1" vertex="1">
          <mxGeometry x="345" y="230" width="200" height="60" as="geometry" />
        </mxCell>
        <mxCell id="Wn6Uqj_4H-TygD0mhABq-2" value="break" style="rounded=0;whiteSpace=wrap;html=1;" parent="1" vertex="1">
          <mxGeometry x="398.5" y="330" width="93" height="40" as="geometry" />
        </mxCell>
        <mxCell id="UexK58nmIc1QVbj9qdmx-4" style="edgeStyle=orthogonalEdgeStyle;rounded=0;orthogonalLoop=1;jettySize=auto;html=1;exitX=0.5;exitY=1;exitDx=0;exitDy=0;entryX=0.5;entryY=0;entryDx=0;entryDy=0;" parent="1" source="Wn6Uqj_4H-TygD0mhABq-3" target="UexK58nmIc1QVbj9qdmx-1" edge="1">
          <mxGeometry relative="1" as="geometry" />
        </mxCell>
        <mxCell id="UexK58nmIc1QVbj9qdmx-36" style="edgeStyle=orthogonalEdgeStyle;rounded=0;orthogonalLoop=1;jettySize=auto;html=1;exitX=0;exitY=0.5;exitDx=0;exitDy=0;entryX=0;entryY=0.5;entryDx=0;entryDy=0;" parent="1" source="Wn6Uqj_4H-TygD0mhABq-3" target="UexK58nmIc1QVbj9qdmx-24" edge="1">
          <mxGeometry relative="1" as="geometry">
            <Array as="points">
              <mxPoint x="30" y="435" />
              <mxPoint x="30" y="920" />
            </Array>
          </mxGeometry>
        </mxCell>
        <mxCell id="UexK58nmIc1QVbj9qdmx-37" value="False" style="edgeLabel;html=1;align=center;verticalAlign=middle;resizable=0;points=[];" parent="UexK58nmIc1QVbj9qdmx-36" vertex="1" connectable="0">
          <mxGeometry x="-0.776" y="-2" relative="1" as="geometry">
            <mxPoint x="32" y="-39" as="offset" />
          </mxGeometry>
        </mxCell>
        <mxCell id="Wn6Uqj_4H-TygD0mhABq-3" value="For loop to go through every line&amp;nbsp;&lt;div&gt;of&amp;nbsp;&lt;span style=&quot;background-color: initial;&quot;&gt;the font data file&lt;/span&gt;&lt;/div&gt;" style="rhombus;whiteSpace=wrap;html=1;" parent="1" vertex="1">
          <mxGeometry x="87.5" y="370" width="235" height="130" as="geometry" />
        </mxCell>
        <mxCell id="3Hz11mZcJjZmSHFyL8-g-9" value="No" style="text;html=1;align=center;verticalAlign=middle;whiteSpace=wrap;rounded=0;" parent="1" vertex="1">
          <mxGeometry x="295" y="230" width="60" height="30" as="geometry" />
        </mxCell>
        <mxCell id="3Hz11mZcJjZmSHFyL8-g-11" value="Yes" style="text;html=1;align=center;verticalAlign=middle;whiteSpace=wrap;rounded=0;" parent="1" vertex="1">
          <mxGeometry x="155" y="320" width="60" height="30" as="geometry" />
        </mxCell>
        <mxCell id="UexK58nmIc1QVbj9qdmx-22" style="edgeStyle=orthogonalEdgeStyle;rounded=0;orthogonalLoop=1;jettySize=auto;html=1;exitX=1;exitY=0.5;exitDx=0;exitDy=0;" parent="1" source="UexK58nmIc1QVbj9qdmx-1" target="UexK58nmIc1QVbj9qdmx-8" edge="1">
          <mxGeometry relative="1" as="geometry" />
        </mxCell>
        <mxCell id="UexK58nmIc1QVbj9qdmx-1" value="The first variable within the line a &#39;999&#39;?" style="rhombus;whiteSpace=wrap;html=1;" parent="1" vertex="1">
          <mxGeometry x="80" y="550" width="250" height="160" as="geometry" />
        </mxCell>
        <mxCell id="UexK58nmIc1QVbj9qdmx-7" value="Scan and store the 2nd and 3rd variable within the same line in the character data structure as &#39;C&#39; and &#39;N&#39;" style="rounded=0;whiteSpace=wrap;html=1;" parent="1" vertex="1">
          <mxGeometry x="125" y="750" width="170" height="90" as="geometry" />
        </mxCell>
        <mxCell id="UexK58nmIc1QVbj9qdmx-8" value="Scan and store the three variables in a Point data structure: &#39;X&#39;, &#39;Y&#39; and &#39;P&#39; respectfully using pointer to ensure this aligns to a specific character data" style="rounded=0;whiteSpace=wrap;html=1;" parent="1" vertex="1">
          <mxGeometry x="377.5" y="592.5" width="212.5" height="75" as="geometry" />
        </mxCell>
        <mxCell id="UexK58nmIc1QVbj9qdmx-16" style="edgeStyle=orthogonalEdgeStyle;rounded=0;orthogonalLoop=1;jettySize=auto;html=1;exitX=0.5;exitY=1;exitDx=0;exitDy=0;entryX=0.475;entryY=-0.001;entryDx=0;entryDy=0;entryPerimeter=0;" parent="1" source="UexK58nmIc1QVbj9qdmx-1" target="UexK58nmIc1QVbj9qdmx-7" edge="1">
          <mxGeometry relative="1" as="geometry" />
        </mxCell>
        <mxCell id="UexK58nmIc1QVbj9qdmx-17" value="True" style="text;html=1;align=center;verticalAlign=middle;whiteSpace=wrap;rounded=0;" parent="1" vertex="1">
          <mxGeometry x="191.5" y="710" width="60" height="30" as="geometry" />
        </mxCell>
        <mxCell id="UexK58nmIc1QVbj9qdmx-20" value="True" style="text;html=1;align=center;verticalAlign=middle;whiteSpace=wrap;rounded=0;" parent="1" vertex="1">
          <mxGeometry x="197.5" y="510" width="60" height="30" as="geometry" />
        </mxCell>
        <mxCell id="UexK58nmIc1QVbj9qdmx-23" value="False" style="text;html=1;align=center;verticalAlign=middle;whiteSpace=wrap;rounded=0;" parent="1" vertex="1">
          <mxGeometry x="311.88" y="600" width="60" height="30" as="geometry" />
        </mxCell>
        <mxCell id="UexK58nmIc1QVbj9qdmx-40" style="edgeStyle=orthogonalEdgeStyle;rounded=0;orthogonalLoop=1;jettySize=auto;html=1;exitX=0.5;exitY=1;exitDx=0;exitDy=0;entryX=0.5;entryY=0;entryDx=0;entryDy=0;" parent="1" source="UexK58nmIc1QVbj9qdmx-24" target="UexK58nmIc1QVbj9qdmx-39" edge="1">
          <mxGeometry relative="1" as="geometry" />
        </mxCell>
        <mxCell id="UexK58nmIc1QVbj9qdmx-24" value="Close the file once it finishes going through each line" style="rounded=0;whiteSpace=wrap;html=1;" parent="1" vertex="1">
          <mxGeometry x="150" y="890" width="120" height="60" as="geometry" />
        </mxCell>
        <mxCell id="UexK58nmIc1QVbj9qdmx-28" value="" style="endArrow=classic;html=1;rounded=0;entryX=1;entryY=0.5;entryDx=0;entryDy=0;" parent="1" target="Wn6Uqj_4H-TygD0mhABq-3" edge="1">
          <mxGeometry width="50" height="50" relative="1" as="geometry">
            <mxPoint x="295" y="800" as="sourcePoint" />
            <mxPoint x="660" y="490" as="targetPoint" />
            <Array as="points">
              <mxPoint x="680" y="800" />
              <mxPoint x="680" y="435" />
            </Array>
          </mxGeometry>
        </mxCell>
        <mxCell id="UexK58nmIc1QVbj9qdmx-30" value="" style="ellipse;whiteSpace=wrap;html=1;aspect=fixed;" parent="1" vertex="1">
          <mxGeometry x="660" y="610" width="42.5" height="42.5" as="geometry" />
        </mxCell>
        <mxCell id="UexK58nmIc1QVbj9qdmx-34" value="" style="endArrow=classic;html=1;rounded=0;entryX=0;entryY=0.5;entryDx=0;entryDy=0;exitX=1;exitY=0.5;exitDx=0;exitDy=0;" parent="1" source="UexK58nmIc1QVbj9qdmx-8" target="UexK58nmIc1QVbj9qdmx-30" edge="1">
          <mxGeometry width="50" height="50" relative="1" as="geometry">
            <mxPoint x="590" y="640" as="sourcePoint" />
            <mxPoint x="640" y="590" as="targetPoint" />
          </mxGeometry>
        </mxCell>
        <mxCell id="UexK58nmIc1QVbj9qdmx-35" value="" style="endArrow=classic;html=1;rounded=0;" parent="1" edge="1">
          <mxGeometry width="50" height="50" relative="1" as="geometry">
            <mxPoint x="680" y="800" as="sourcePoint" />
            <mxPoint x="680" y="652.5" as="targetPoint" />
          </mxGeometry>
        </mxCell>
        <mxCell id="UexK58nmIc1QVbj9qdmx-39" value="Return Value" style="rounded=0;whiteSpace=wrap;html=1;" parent="1" vertex="1">
          <mxGeometry x="160" y="980" width="100" height="40" as="geometry" />
        </mxCell>
      </root>
    </mxGraphModel>
  </diagram>
  <diagram id="X3kHV3NRr354XeWhVmbE" name="Page-4">
    <mxGraphModel dx="1236" dy="695" grid="1" gridSize="10" guides="1" tooltips="1" connect="1" arrows="1" fold="1" page="1" pageScale="1" pageWidth="827" pageHeight="1169" math="0" shadow="0">
      <root>
        <mxCell id="0" />
        <mxCell id="1" parent="0" />
        <mxCell id="YTYWsJB1ephSFPN_lWD0-1" style="edgeStyle=orthogonalEdgeStyle;rounded=0;orthogonalLoop=1;jettySize=auto;html=1;exitX=0.5;exitY=1;exitDx=0;exitDy=0;entryX=0.5;entryY=0;entryDx=0;entryDy=0;" edge="1" parent="1" source="Om_LEBFRsWqsA2o2r3wD-1" target="PQtEc-GLBQ6ZolBqLa9i-1">
          <mxGeometry relative="1" as="geometry" />
        </mxCell>
        <mxCell id="Om_LEBFRsWqsA2o2r3wD-1" value="LoadTextFile()" style="rounded=1;whiteSpace=wrap;html=1;" parent="1" vertex="1">
          <mxGeometry x="170" y="40" width="120" height="60" as="geometry" />
        </mxCell>
        <mxCell id="YTYWsJB1ephSFPN_lWD0-2" style="edgeStyle=orthogonalEdgeStyle;rounded=0;orthogonalLoop=1;jettySize=auto;html=1;exitX=0.5;exitY=1;exitDx=0;exitDy=0;entryX=0.5;entryY=0;entryDx=0;entryDy=0;" edge="1" parent="1" source="PQtEc-GLBQ6ZolBqLa9i-1" target="uiupXI2tiz82auDL9hZZ-8">
          <mxGeometry relative="1" as="geometry" />
        </mxCell>
        <UserObject label="Open and read the text file the user has specified&amp;nbsp;" link="Load font data from the &quot;SingleStrokeFont.txt&quot; file" id="PQtEc-GLBQ6ZolBqLa9i-1">
          <mxCell style="rounded=0;whiteSpace=wrap;html=1;" parent="1" vertex="1">
            <mxGeometry x="170" y="150" width="120" height="50" as="geometry" />
          </mxCell>
        </UserObject>
        <mxCell id="YTYWsJB1ephSFPN_lWD0-4" style="edgeStyle=orthogonalEdgeStyle;rounded=0;orthogonalLoop=1;jettySize=auto;html=1;exitX=0.5;exitY=1;exitDx=0;exitDy=0;entryX=0.5;entryY=0;entryDx=0;entryDy=0;" edge="1" parent="1" source="pnw8Pf061pAoEFNENtn6-1" target="uiupXI2tiz82auDL9hZZ-9">
          <mxGeometry relative="1" as="geometry" />
        </mxCell>
        <mxCell id="pnw8Pf061pAoEFNENtn6-1" value="Convert the text file to ASCII value" style="rounded=0;whiteSpace=wrap;html=1;" parent="1" vertex="1">
          <mxGeometry x="170" y="350" width="120" height="60" as="geometry" />
        </mxCell>
        <mxCell id="uiupXI2tiz82auDL9hZZ-2" value="Multiply the scale factor by the original font data size" style="rounded=0;whiteSpace=wrap;html=1;" parent="1" vertex="1">
          <mxGeometry x="530" y="300" width="120" height="60" as="geometry" />
        </mxCell>
        <mxCell id="YTYWsJB1ephSFPN_lWD0-8" style="edgeStyle=orthogonalEdgeStyle;rounded=0;orthogonalLoop=1;jettySize=auto;html=1;exitX=0.5;exitY=1;exitDx=0;exitDy=0;entryX=0.5;entryY=0;entryDx=0;entryDy=0;" edge="1" parent="1" source="uiupXI2tiz82auDL9hZZ-3" target="uiupXI2tiz82auDL9hZZ-5">
          <mxGeometry relative="1" as="geometry" />
        </mxCell>
        <mxCell id="uiupXI2tiz82auDL9hZZ-3" value="Input: Original font text size&lt;div&gt;&amp;nbsp;(From text array structure, variable X and Y only)&lt;/div&gt;" style="shape=parallelogram;perimeter=parallelogramPerimeter;whiteSpace=wrap;html=1;fixedSize=1;" parent="1" vertex="1">
          <mxGeometry x="500" y="140" width="180" height="60" as="geometry" />
        </mxCell>
        <mxCell id="uiupXI2tiz82auDL9hZZ-4" value="Output: Text array scaled&amp;nbsp;&lt;div&gt;using pointer. The rest of variable should stay the same&lt;/div&gt;" style="shape=parallelogram;perimeter=parallelogramPerimeter;whiteSpace=wrap;html=1;fixedSize=1;" parent="1" vertex="1">
          <mxGeometry x="475" y="410" width="200" height="120" as="geometry" />
        </mxCell>
        <mxCell id="YTYWsJB1ephSFPN_lWD0-9" style="edgeStyle=orthogonalEdgeStyle;rounded=0;orthogonalLoop=1;jettySize=auto;html=1;exitX=0.5;exitY=1;exitDx=0;exitDy=0;entryX=0.5;entryY=0;entryDx=0;entryDy=0;" edge="1" parent="1" source="uiupXI2tiz82auDL9hZZ-5" target="uiupXI2tiz82auDL9hZZ-2">
          <mxGeometry relative="1" as="geometry" />
        </mxCell>
        <mxCell id="uiupXI2tiz82auDL9hZZ-5" value="Input: ScaleFactor" style="shape=parallelogram;perimeter=parallelogramPerimeter;whiteSpace=wrap;html=1;fixedSize=1;" parent="1" vertex="1">
          <mxGeometry x="520" y="220" width="140" height="60" as="geometry" />
        </mxCell>
        <mxCell id="YTYWsJB1ephSFPN_lWD0-7" style="edgeStyle=orthogonalEdgeStyle;rounded=0;orthogonalLoop=1;jettySize=auto;html=1;exitX=0.5;exitY=1;exitDx=0;exitDy=0;entryX=0.5;entryY=0;entryDx=0;entryDy=0;" edge="1" parent="1" source="uiupXI2tiz82auDL9hZZ-6" target="uiupXI2tiz82auDL9hZZ-3">
          <mxGeometry relative="1" as="geometry" />
        </mxCell>
        <mxCell id="uiupXI2tiz82auDL9hZZ-6" value="ScaleFont()" style="rounded=1;whiteSpace=wrap;html=1;" parent="1" vertex="1">
          <mxGeometry x="530" y="40" width="120" height="60" as="geometry" />
        </mxCell>
        <mxCell id="YTYWsJB1ephSFPN_lWD0-3" style="edgeStyle=orthogonalEdgeStyle;rounded=0;orthogonalLoop=1;jettySize=auto;html=1;exitX=0.5;exitY=1;exitDx=0;exitDy=0;" edge="1" parent="1" source="uiupXI2tiz82auDL9hZZ-8" target="pnw8Pf061pAoEFNENtn6-1">
          <mxGeometry relative="1" as="geometry" />
        </mxCell>
        <mxCell id="uiupXI2tiz82auDL9hZZ-8" value="Scan and store the file using dynamic memory allocation&amp;nbsp;" style="rounded=0;whiteSpace=wrap;html=1;" parent="1" vertex="1">
          <mxGeometry x="160" y="240" width="140" height="80" as="geometry" />
        </mxCell>
        <mxCell id="YTYWsJB1ephSFPN_lWD0-5" style="edgeStyle=orthogonalEdgeStyle;rounded=0;orthogonalLoop=1;jettySize=auto;html=1;exitX=0.5;exitY=1;exitDx=0;exitDy=0;entryX=0.5;entryY=0;entryDx=0;entryDy=0;" edge="1" parent="1" source="uiupXI2tiz82auDL9hZZ-9" target="IgghEioDvwlvBy7fPB1M-1">
          <mxGeometry relative="1" as="geometry" />
        </mxCell>
        <mxCell id="uiupXI2tiz82auDL9hZZ-9" value="Use pointer to access the character data structure&amp;nbsp;&amp;nbsp;" style="rounded=0;whiteSpace=wrap;html=1;" parent="1" vertex="1">
          <mxGeometry x="170" y="450" width="120" height="60" as="geometry" />
        </mxCell>
        <mxCell id="lnHLdgIvP5YFyIUpSji9-1" value="Output: Text array structure ASCII converted" style="shape=parallelogram;perimeter=parallelogramPerimeter;whiteSpace=wrap;html=1;fixedSize=1;" parent="1" vertex="1">
          <mxGeometry x="130" y="640" width="180" height="60" as="geometry" />
        </mxCell>
        <mxCell id="IgghEioDvwlvBy7fPB1M-1" value="Ensure the last line of coordinates is added to the next character&#39;s first line coordinates to offset the letters" style="rounded=0;whiteSpace=wrap;html=1;" vertex="1" parent="1">
          <mxGeometry x="155" y="530" width="150" height="90" as="geometry" />
        </mxCell>
        <mxCell id="YTYWsJB1ephSFPN_lWD0-11" style="edgeStyle=orthogonalEdgeStyle;rounded=0;orthogonalLoop=1;jettySize=auto;html=1;exitX=0.5;exitY=1;exitDx=0;exitDy=0;entryX=0.5;entryY=0;entryDx=0;entryDy=0;" edge="1" parent="1" source="QvrZo0HLnit5wRkqv6G1-1" target="QvrZo0HLnit5wRkqv6G1-5">
          <mxGeometry relative="1" as="geometry" />
        </mxCell>
        <mxCell id="QvrZo0HLnit5wRkqv6G1-1" value="SendtoArduino()" style="shape=process;whiteSpace=wrap;html=1;backgroundOutline=1;" vertex="1" parent="1">
          <mxGeometry x="515" y="620" width="120" height="60" as="geometry" />
        </mxCell>
        <mxCell id="YTYWsJB1ephSFPN_lWD0-14" style="edgeStyle=orthogonalEdgeStyle;rounded=0;orthogonalLoop=1;jettySize=auto;html=1;exitX=0.5;exitY=1;exitDx=0;exitDy=0;entryX=0.5;entryY=0;entryDx=0;entryDy=0;" edge="1" parent="1" source="QvrZo0HLnit5wRkqv6G1-2" target="QvrZo0HLnit5wRkqv6G1-4">
          <mxGeometry relative="1" as="geometry" />
        </mxCell>
        <mxCell id="QvrZo0HLnit5wRkqv6G1-2" value="Send G code command to Arduino" style="rounded=0;whiteSpace=wrap;html=1;" vertex="1" parent="1">
          <mxGeometry x="520" y="890" width="120" height="60" as="geometry" />
        </mxCell>
        <mxCell id="YTYWsJB1ephSFPN_lWD0-13" style="edgeStyle=orthogonalEdgeStyle;rounded=0;orthogonalLoop=1;jettySize=auto;html=1;exitX=0.5;exitY=1;exitDx=0;exitDy=0;entryX=0.5;entryY=0;entryDx=0;entryDy=0;" edge="1" parent="1" source="QvrZo0HLnit5wRkqv6G1-3" target="QvrZo0HLnit5wRkqv6G1-2">
          <mxGeometry relative="1" as="geometry" />
        </mxCell>
        <mxCell id="QvrZo0HLnit5wRkqv6G1-3" value="Input: char* Gcommand" style="shape=parallelogram;perimeter=parallelogramPerimeter;whiteSpace=wrap;html=1;fixedSize=1;" vertex="1" parent="1">
          <mxGeometry x="525" y="800" width="110" height="60" as="geometry" />
        </mxCell>
        <mxCell id="QvrZo0HLnit5wRkqv6G1-4" value="Return" style="rounded=0;whiteSpace=wrap;html=1;" vertex="1" parent="1">
          <mxGeometry x="520" y="980" width="120" height="60" as="geometry" />
        </mxCell>
        <mxCell id="YTYWsJB1ephSFPN_lWD0-12" style="edgeStyle=orthogonalEdgeStyle;rounded=0;orthogonalLoop=1;jettySize=auto;html=1;exitX=0.5;exitY=1;exitDx=0;exitDy=0;entryX=0.5;entryY=0;entryDx=0;entryDy=0;" edge="1" parent="1" source="QvrZo0HLnit5wRkqv6G1-5" target="QvrZo0HLnit5wRkqv6G1-3">
          <mxGeometry relative="1" as="geometry" />
        </mxCell>
        <mxCell id="QvrZo0HLnit5wRkqv6G1-5" value="Initialise the G Code:&lt;div&gt;F100&lt;/div&gt;&lt;div&gt;M3&lt;/div&gt;&lt;div&gt;S0&lt;/div&gt;" style="rounded=0;whiteSpace=wrap;html=1;" vertex="1" parent="1">
          <mxGeometry x="520" y="710" width="120" height="60" as="geometry" />
        </mxCell>
        <mxCell id="YTYWsJB1ephSFPN_lWD0-6" style="edgeStyle=orthogonalEdgeStyle;rounded=0;orthogonalLoop=1;jettySize=auto;html=1;exitX=0.5;exitY=1;exitDx=0;exitDy=0;entryX=0.554;entryY=0.068;entryDx=0;entryDy=0;entryPerimeter=0;" edge="1" parent="1" source="IgghEioDvwlvBy7fPB1M-1" target="lnHLdgIvP5YFyIUpSji9-1">
          <mxGeometry relative="1" as="geometry" />
        </mxCell>
        <mxCell id="YTYWsJB1ephSFPN_lWD0-10" style="edgeStyle=orthogonalEdgeStyle;rounded=0;orthogonalLoop=1;jettySize=auto;html=1;exitX=0.5;exitY=1;exitDx=0;exitDy=0;entryX=0.573;entryY=0.035;entryDx=0;entryDy=0;entryPerimeter=0;" edge="1" parent="1" source="uiupXI2tiz82auDL9hZZ-2" target="uiupXI2tiz82auDL9hZZ-4">
          <mxGeometry relative="1" as="geometry" />
        </mxCell>
      </root>
    </mxGraphModel>
  </diagram>
  <diagram id="Gz2WhXWt3FW7joCZVCgt" name="Page-3">
    <mxGraphModel dx="1236" dy="695" grid="1" gridSize="10" guides="1" tooltips="1" connect="1" arrows="1" fold="1" page="1" pageScale="1" pageWidth="827" pageHeight="1169" math="0" shadow="0">
      <root>
        <mxCell id="0" />
        <mxCell id="1" parent="0" />
        <mxCell id="yK7hfAwNQ9LtmbjUL9_8-11" style="edgeStyle=orthogonalEdgeStyle;rounded=0;orthogonalLoop=1;jettySize=auto;html=1;exitX=0.5;exitY=1;exitDx=0;exitDy=0;entryX=0.5;entryY=0;entryDx=0;entryDy=0;" edge="1" parent="1" source="nwJu55Zh6d_zuAcKv94x-1" target="Xq8CB2MlahzKVrBn53nq-3">
          <mxGeometry relative="1" as="geometry" />
        </mxCell>
        <mxCell id="nwJu55Zh6d_zuAcKv94x-1" value="GenerateGCode()" style="rounded=1;whiteSpace=wrap;html=1;" parent="1" vertex="1">
          <mxGeometry x="260" y="40" width="120" height="60" as="geometry" />
        </mxCell>
        <mxCell id="yK7hfAwNQ9LtmbjUL9_8-10" style="edgeStyle=orthogonalEdgeStyle;rounded=0;orthogonalLoop=1;jettySize=auto;html=1;exitX=0.5;exitY=1;exitDx=0;exitDy=0;entryX=0.5;entryY=0;entryDx=0;entryDy=0;" edge="1" parent="1" source="Xq8CB2MlahzKVrBn53nq-3" target="ZXM4WWVzVcbOpQHap2RM-2">
          <mxGeometry relative="1" as="geometry" />
        </mxCell>
        <mxCell id="Xq8CB2MlahzKVrBn53nq-3" value="Access the Text scaled structure" style="rounded=0;whiteSpace=wrap;html=1;" parent="1" vertex="1">
          <mxGeometry x="260" y="140" width="120" height="60" as="geometry" />
        </mxCell>
        <mxCell id="yK7hfAwNQ9LtmbjUL9_8-5" style="edgeStyle=orthogonalEdgeStyle;rounded=0;orthogonalLoop=1;jettySize=auto;html=1;exitX=1;exitY=0.5;exitDx=0;exitDy=0;" edge="1" parent="1" source="ZXM4WWVzVcbOpQHap2RM-1">
          <mxGeometry relative="1" as="geometry">
            <mxPoint x="430" y="484.8888888888889" as="targetPoint" />
          </mxGeometry>
        </mxCell>
        <mxCell id="ZXM4WWVzVcbOpQHap2RM-1" value="Third variable (P) is 1?" style="rhombus;whiteSpace=wrap;html=1;" parent="1" vertex="1">
          <mxGeometry x="245" y="430" width="150" height="110" as="geometry" />
        </mxCell>
        <mxCell id="yK7hfAwNQ9LtmbjUL9_8-9" style="edgeStyle=orthogonalEdgeStyle;rounded=0;orthogonalLoop=1;jettySize=auto;html=1;exitX=0.5;exitY=1;exitDx=0;exitDy=0;entryX=0.5;entryY=0;entryDx=0;entryDy=0;" edge="1" parent="1" source="ZXM4WWVzVcbOpQHap2RM-2" target="C3PkpOrpfsMrfKmFDjVo-1">
          <mxGeometry relative="1" as="geometry" />
        </mxCell>
        <mxCell id="ZXM4WWVzVcbOpQHap2RM-2" value="A for loop going through the&amp;nbsp;&lt;div&gt;text array structure size&lt;/div&gt;" style="rhombus;whiteSpace=wrap;html=1;" parent="1" vertex="1">
          <mxGeometry x="215" y="220" width="210" height="90" as="geometry" />
        </mxCell>
        <mxCell id="yK7hfAwNQ9LtmbjUL9_8-3" style="edgeStyle=orthogonalEdgeStyle;rounded=0;orthogonalLoop=1;jettySize=auto;html=1;exitX=0.5;exitY=1;exitDx=0;exitDy=0;entryX=0.5;entryY=0;entryDx=0;entryDy=0;" edge="1" parent="1" source="ZXM4WWVzVcbOpQHap2RM-3" target="ZXM4WWVzVcbOpQHap2RM-6">
          <mxGeometry relative="1" as="geometry" />
        </mxCell>
        <mxCell id="ZXM4WWVzVcbOpQHap2RM-3" value="Add &#39;S0&#39;&amp;nbsp; to represent pen up to G code structure - using pointer to add it to &#39;penstate&#39; variable" style="rounded=0;whiteSpace=wrap;html=1;" parent="1" vertex="1">
          <mxGeometry x="250" y="590" width="140" height="80" as="geometry" />
        </mxCell>
        <mxCell id="ZXM4WWVzVcbOpQHap2RM-4" value="Add &#39;S1000&#39; to represent pen down to G code structure using pointer to add it to &#39;penstate&#39; variable" style="rounded=0;whiteSpace=wrap;html=1;" parent="1" vertex="1">
          <mxGeometry x="435" y="445" width="150" height="80" as="geometry" />
        </mxCell>
        <mxCell id="yK7hfAwNQ9LtmbjUL9_8-1" style="edgeStyle=orthogonalEdgeStyle;rounded=0;orthogonalLoop=1;jettySize=auto;html=1;exitX=0;exitY=0.5;exitDx=0;exitDy=0;entryX=1;entryY=0.5;entryDx=0;entryDy=0;" edge="1" parent="1" source="ZXM4WWVzVcbOpQHap2RM-6" target="YR-jwGovKKHdb0vWRYnO-2">
          <mxGeometry relative="1" as="geometry" />
        </mxCell>
        <mxCell id="ZXM4WWVzVcbOpQHap2RM-6" value="Is the variable coordinate X or Y the&amp;nbsp;&lt;div&gt;same&amp;nbsp;&lt;span style=&quot;background-color: initial;&quot;&gt;as the previous line?&lt;/span&gt;&lt;/div&gt;" style="rhombus;whiteSpace=wrap;html=1;" parent="1" vertex="1">
          <mxGeometry x="198.75" y="710" width="242.5" height="145" as="geometry" />
        </mxCell>
        <mxCell id="YR-jwGovKKHdb0vWRYnO-1" value="Add &#39;G1&#39; to represent the bot is going to draw a straight line&amp;nbsp;" style="rounded=0;whiteSpace=wrap;html=1;" parent="1" vertex="1">
          <mxGeometry x="255" y="890" width="140" height="70" as="geometry" />
        </mxCell>
        <mxCell id="YR-jwGovKKHdb0vWRYnO-2" value="Add &#39;G0&#39; to represent the bot moving to a new position" style="rounded=0;whiteSpace=wrap;html=1;" parent="1" vertex="1">
          <mxGeometry x="40" y="752.5" width="120" height="60" as="geometry" />
        </mxCell>
        <mxCell id="yK7hfAwNQ9LtmbjUL9_8-6" style="edgeStyle=orthogonalEdgeStyle;rounded=0;orthogonalLoop=1;jettySize=auto;html=1;exitX=0.5;exitY=1;exitDx=0;exitDy=0;entryX=0.5;entryY=0;entryDx=0;entryDy=0;" edge="1" parent="1" source="C3PkpOrpfsMrfKmFDjVo-1" target="ZXM4WWVzVcbOpQHap2RM-1">
          <mxGeometry relative="1" as="geometry" />
        </mxCell>
        <mxCell id="C3PkpOrpfsMrfKmFDjVo-1" value="Convert the ASCII character to G-Code&amp;nbsp;" style="rounded=0;whiteSpace=wrap;html=1;" vertex="1" parent="1">
          <mxGeometry x="260" y="340" width="120" height="60" as="geometry" />
        </mxCell>
        <mxCell id="yK7hfAwNQ9LtmbjUL9_8-2" style="edgeStyle=orthogonalEdgeStyle;rounded=0;orthogonalLoop=1;jettySize=auto;html=1;exitX=0.5;exitY=1;exitDx=0;exitDy=0;" edge="1" parent="1" source="ZXM4WWVzVcbOpQHap2RM-6">
          <mxGeometry relative="1" as="geometry">
            <mxPoint x="321" y="890" as="targetPoint" />
          </mxGeometry>
        </mxCell>
        <mxCell id="yK7hfAwNQ9LtmbjUL9_8-4" style="edgeStyle=orthogonalEdgeStyle;rounded=0;orthogonalLoop=1;jettySize=auto;html=1;exitX=0.5;exitY=1;exitDx=0;exitDy=0;" edge="1" parent="1" source="ZXM4WWVzVcbOpQHap2RM-1">
          <mxGeometry relative="1" as="geometry">
            <mxPoint x="320" y="590" as="targetPoint" />
          </mxGeometry>
        </mxCell>
        <mxCell id="yK7hfAwNQ9LtmbjUL9_8-12" value="" style="endArrow=classic;html=1;rounded=0;exitX=0.5;exitY=1;exitDx=0;exitDy=0;entryX=1;entryY=0.5;entryDx=0;entryDy=0;" edge="1" parent="1" source="YR-jwGovKKHdb0vWRYnO-1" target="ZXM4WWVzVcbOpQHap2RM-2">
          <mxGeometry width="50" height="50" relative="1" as="geometry">
            <mxPoint x="210" y="860" as="sourcePoint" />
            <mxPoint x="770" y="340" as="targetPoint" />
            <Array as="points">
              <mxPoint x="325" y="1010" />
              <mxPoint x="760" y="1010" />
              <mxPoint x="760" y="265" />
            </Array>
          </mxGeometry>
        </mxCell>
        <mxCell id="yK7hfAwNQ9LtmbjUL9_8-13" value="" style="endArrow=classic;html=1;rounded=0;exitX=0.5;exitY=1;exitDx=0;exitDy=0;entryX=0;entryY=0.5;entryDx=0;entryDy=0;" edge="1" parent="1" source="YR-jwGovKKHdb0vWRYnO-2" target="YR-jwGovKKHdb0vWRYnO-1">
          <mxGeometry width="50" height="50" relative="1" as="geometry">
            <mxPoint x="450" y="780" as="sourcePoint" />
            <mxPoint x="500" y="730" as="targetPoint" />
            <Array as="points">
              <mxPoint x="100" y="925" />
            </Array>
          </mxGeometry>
        </mxCell>
        <mxCell id="yK7hfAwNQ9LtmbjUL9_8-14" value="" style="endArrow=classic;html=1;rounded=0;exitX=0.5;exitY=1;exitDx=0;exitDy=0;entryX=1;entryY=0.5;entryDx=0;entryDy=0;" edge="1" parent="1" source="ZXM4WWVzVcbOpQHap2RM-4" target="ZXM4WWVzVcbOpQHap2RM-3">
          <mxGeometry width="50" height="50" relative="1" as="geometry">
            <mxPoint x="450" y="670" as="sourcePoint" />
            <mxPoint x="500" y="620" as="targetPoint" />
            <Array as="points">
              <mxPoint x="510" y="630" />
            </Array>
          </mxGeometry>
        </mxCell>
        <mxCell id="yK7hfAwNQ9LtmbjUL9_8-16" value="Return" style="rounded=0;whiteSpace=wrap;html=1;" vertex="1" parent="1">
          <mxGeometry x="60" y="320" width="120" height="60" as="geometry" />
        </mxCell>
        <mxCell id="yK7hfAwNQ9LtmbjUL9_8-17" value="" style="endArrow=classic;html=1;rounded=0;entryX=0.5;entryY=0;entryDx=0;entryDy=0;exitX=0;exitY=0.5;exitDx=0;exitDy=0;" edge="1" parent="1" source="ZXM4WWVzVcbOpQHap2RM-2" target="yK7hfAwNQ9LtmbjUL9_8-16">
          <mxGeometry width="50" height="50" relative="1" as="geometry">
            <mxPoint x="205" y="255" as="sourcePoint" />
            <mxPoint x="110" y="310" as="targetPoint" />
            <Array as="points">
              <mxPoint x="120" y="265" />
            </Array>
          </mxGeometry>
        </mxCell>
        <mxCell id="yK7hfAwNQ9LtmbjUL9_8-18" value="Yes" style="text;html=1;align=center;verticalAlign=middle;whiteSpace=wrap;rounded=0;" vertex="1" parent="1">
          <mxGeometry x="320" y="855" width="60" height="30" as="geometry" />
        </mxCell>
        <mxCell id="yK7hfAwNQ9LtmbjUL9_8-19" value="No" style="text;html=1;align=center;verticalAlign=middle;whiteSpace=wrap;rounded=0;" vertex="1" parent="1">
          <mxGeometry x="155" y="752.5" width="60" height="30" as="geometry" />
        </mxCell>
        <mxCell id="yK7hfAwNQ9LtmbjUL9_8-20" value="Yes" style="text;html=1;align=center;verticalAlign=middle;whiteSpace=wrap;rounded=0;" vertex="1" parent="1">
          <mxGeometry x="380" y="460" width="60" height="30" as="geometry" />
        </mxCell>
        <mxCell id="yK7hfAwNQ9LtmbjUL9_8-22" value="No" style="text;html=1;align=center;verticalAlign=middle;whiteSpace=wrap;rounded=0;" vertex="1" parent="1">
          <mxGeometry x="250" y="540" width="60" height="30" as="geometry" />
        </mxCell>
        <mxCell id="yK7hfAwNQ9LtmbjUL9_8-23" value="True" style="text;html=1;align=center;verticalAlign=middle;whiteSpace=wrap;rounded=0;" vertex="1" parent="1">
          <mxGeometry x="310" y="310" width="60" height="30" as="geometry" />
        </mxCell>
        <mxCell id="yK7hfAwNQ9LtmbjUL9_8-26" value="False" style="text;html=1;align=center;verticalAlign=middle;whiteSpace=wrap;rounded=0;" vertex="1" parent="1">
          <mxGeometry x="140" y="230" width="60" height="30" as="geometry" />
        </mxCell>
      </root>
    </mxGraphModel>
  </diagram>
</mxfile>
